<svg width="29" height="30" viewBox="0 0 29 30" fill="none" xmlns="http://www.w3.org/2000/svg">
<path d="M21.7031 6.148C22.8221 6.148 23.7241 5.25 23.7241 4.132V2.02C23.7241 0.9 22.8221 0 21.7031 0C20.5891 0 19.6851 0.9 19.6851 2.02V4.133C19.6861 5.25 20.5891 6.148 21.7031 6.148Z" fill="black"/>
<path d="M28.883 3.49807H24.814V4.52107C24.814 6.22007 23.435 7.59907 21.74 7.59907C20.041 7.59907 18.664 6.22007 18.664 4.52107V3.49807H10.462V4.52107C10.462 6.22007 9.08398 7.59907 7.38698 7.59907C5.68698 7.59907 4.31298 6.22007 4.31298 4.52107V3.49807L0.208984 3.44507V29.1231L2.26098 29.1251H26.864L28.915 29.1171L28.883 3.49807ZM26.863 27.0801H2.26098V10.6741H26.864V27.0801H26.863Z" fill="black"/>
<path d="M7.35198 6.148C8.47098 6.148 9.37298 5.25 9.37298 4.132V2.02C9.37198 0.9 8.47098 0 7.35198 0C6.23698 0 5.33398 0.9 5.33398 2.02V4.133C5.33398 5.25 6.23698 6.148 7.35198 6.148Z" fill="black"/>
<path d="M7.79807 21.7521C8.22007 21.9821 9.17907 22.3711 10.1441 22.3711C11.3681 22.3711 11.9871 21.7831 11.9871 21.0371C11.9871 20.0311 10.9911 19.5801 9.95907 19.5801H8.99507V17.8891H9.92307C10.7151 17.8891 11.7081 17.5781 11.7081 16.7251C11.7081 16.1201 11.2251 15.6701 10.2201 15.6701C9.39707 15.6701 8.53207 16.0271 8.12507 16.2771L7.64407 14.5721C8.25307 14.1831 9.44407 13.8101 10.7641 13.8101C12.9061 13.8101 14.0941 14.9411 14.0941 16.3201C14.0941 17.3921 13.4931 18.2461 12.2491 18.6621V18.6951C13.4601 18.9121 14.4381 19.8281 14.4381 21.1601C14.4381 22.9281 12.8721 24.2301 10.3111 24.2301C9.00607 24.2301 7.90807 23.8901 7.32007 23.5311L7.79807 21.7521Z" fill="black"/>
<path d="M19.0009 16.0759H18.9729L17.0499 16.9899L16.6609 15.2209L19.3439 13.9819H21.2819V24.0619H19.0009V16.0759Z" fill="black"/>
</svg>
