<svg width="416" height="416" viewBox="0 0 416 416" fill="none" xmlns="http://www.w3.org/2000/svg">
<g id="interest-svgrepo-com 1" clip-path="url(#clip0_11_2)">
<g id="Group">
<path id="Vector" d="M190.926 113.352C190.926 60.7139 148.102 17.8889 95.463 17.8889C42.824 17.8889 0 60.7129 0 113.352C0 165.991 42.824 208.815 95.463 208.815C148.102 208.815 190.926 165.99 190.926 113.352ZM95.463 193.814C51.096 193.814 15 157.719 15 113.352C15 68.9849 51.096 32.8889 95.463 32.8889C139.83 32.8889 175.926 68.9839 175.926 113.352C175.926 157.72 139.83 193.814 95.463 193.814Z" fill="black"/>
<path id="Vector_2" d="M95.463 52.8889C62.124 52.8889 35 80.0119 35 113.352C35 146.692 62.124 173.815 95.463 173.815C128.802 173.815 155.926 146.691 155.926 113.352C155.926 80.0129 128.802 52.8889 95.463 52.8889ZM95.463 158.814C70.395 158.814 50 138.42 50 113.352C50 88.2839 70.395 67.8889 95.463 67.8889C120.531 67.8889 140.926 88.2839 140.926 113.352C140.926 138.42 120.531 158.814 95.463 158.814Z" fill="black"/>
<path id="Vector_3" d="M320.02 241.666C286.681 241.666 259.557 268.79 259.557 302.129C259.557 335.468 286.681 362.592 320.02 362.592C353.359 362.592 380.483 335.468 380.483 302.129C380.482 268.79 353.358 241.666 320.02 241.666ZM320.02 347.592C294.952 347.592 274.557 327.197 274.557 302.129C274.557 277.061 294.952 256.666 320.02 256.666C345.088 256.666 365.483 277.061 365.483 302.129C365.482 327.197 345.088 347.592 320.02 347.592Z" fill="black"/>
<path id="Vector_4" d="M320.02 206.666C267.381 206.666 224.557 249.49 224.557 302.129C224.557 354.767 267.381 397.592 320.02 397.592C372.659 397.592 415.483 354.768 415.483 302.129C415.482 249.491 372.658 206.666 320.02 206.666ZM320.02 382.592C275.653 382.592 239.557 346.497 239.557 302.129C239.557 257.762 275.653 221.666 320.02 221.666C364.387 221.666 400.483 257.761 400.483 302.129C400.482 346.496 364.387 382.592 320.02 382.592Z" fill="black"/>
<path id="line" d="M279.625 29.306C276.455 23.428 271.187 19.136 264.79 17.221C251.586 13.267 237.624 20.794 233.67 33.999L133.915 367.14C131.999 373.537 132.689 380.297 135.858 386.175C139.028 392.053 144.296 396.345 150.693 398.26C153.031 398.96 155.446 399.315 157.871 399.315C168.823 399.315 178.669 391.982 181.813 381.482L281.568 48.341C283.484 41.944 282.794 35.184 279.625 29.306ZM267.199 44.038L167.444 377.179C166.185 381.381 162.249 384.315 157.871 384.315C156.904 384.315 155.937 384.172 154.996 383.89C152.437 383.124 150.33 381.407 149.062 379.056C147.793 376.705 147.518 374.001 148.284 371.442L248.039 38.301C249.336 33.972 253.32 31.168 257.624 31.168C258.571 31.168 259.534 31.304 260.487 31.589C263.046 32.355 265.153 34.072 266.421 36.423C267.689 38.775 267.965 41.479 267.199 44.038Z" fill="black"/>
</g>
</g>
<defs>
<clipPath id="clip0_11_2">
<rect width="415.482" height="415.482" fill="white"/>
</clipPath>
</defs>
</svg>
