<svg width="667" height="667" viewBox="0 0 667 667" fill="none" xmlns="http://www.w3.org/2000/svg">
<g id="g10">
<path id="path12" d="M0 666.667H666.667V6.10352e-05H0V666.667Z" fill="#A7D3DF"/>
<g id="g14">
<g id="g16">
<g id="g22">
<path id="path24" d="M334.044 162.026C316.28 160.174 298.844 165.106 282.951 172.776C268.52 179.739 255.008 188.76 242.776 199.092C219.813 218.488 200.575 243.651 191.724 272.658C182.849 301.743 186.457 332.431 200.572 359.236C215.385 387.366 239.576 409.834 266.744 425.875C296.488 443.438 330.431 453.828 364.909 455.911C396.488 457.816 430.256 452.76 456.76 434.427C480.935 417.703 495.123 390.916 498.911 362.091C502.828 332.306 495.911 302.375 481.107 276.412C465.391 248.851 442.039 226.311 416.299 208.107C388.269 188.282 355.684 170.854 320.847 168.327C312.451 167.718 304.056 168.111 295.751 169.459C294.464 169.667 295.009 171.624 296.291 171.416C331.729 165.668 366.741 179.587 396.588 197.632C422.993 213.596 447.675 233.436 466.481 258.068C484.689 281.916 496.772 310.203 497.885 340.418C498.924 368.618 490.805 397.831 471.499 418.958C450.087 442.386 418.013 452.348 387.088 454C353.831 455.778 319.975 448.952 289.615 435.398C235.115 411.064 182.632 358.778 189.32 294.452C192.409 264.722 207.847 237.511 227.988 215.943C238.217 204.988 249.776 195.287 262.259 186.996C276.375 177.622 291.859 169.498 308.475 165.703C316.883 163.783 325.463 163.162 334.044 164.056C335.343 164.192 335.333 162.16 334.044 162.026Z" fill="#E9FBFF"/>
</g>
<g id="g26">
<path id="path28" d="M347.488 462.741C329.342 469.037 309.624 466.225 291.109 463.221C273.39 460.345 255.826 456.213 238.94 450.073C207.028 438.471 177.474 419.004 158.313 390.495C140.566 364.088 134.565 332.307 142.325 301.379C149.858 271.361 168.433 244.511 192.274 225.048C247.081 180.305 325.293 177.243 392.394 185.667C411.973 188.125 431.409 191.929 450.382 197.38C466.277 201.945 482.784 207.389 495.824 217.936C509.586 229.068 516.316 245.316 515.766 262.897C515.194 281.173 507.212 298.04 496.994 312.863C477.901 340.561 452.792 364.949 426.337 385.572C399.713 406.327 370.304 423.565 339.134 436.54C331.64 439.659 324.042 442.52 316.364 445.152C315.134 445.573 315.662 447.536 316.904 447.109C382.725 424.552 442.084 383.733 486.405 330.052C507.589 304.392 528.426 268.751 512.304 235.123C505.362 220.647 491.802 211.101 477.501 204.723C460.341 197.072 441.653 192.412 423.298 188.677C385.949 181.079 346.944 178.075 308.912 181.168C273.918 184.013 238.932 192.741 208.68 211.031C155.54 243.156 119.653 310.989 145.653 371.572C158.786 402.175 184.409 426.016 213.618 441.207C229.942 449.696 247.449 455.756 265.302 460.104C283.533 464.547 302.769 468.208 321.58 468.519C330.564 468.665 339.513 467.655 348.028 464.7C349.254 464.273 348.728 462.312 347.488 462.741Z" fill="#E9FBFF"/>
</g>
<g id="fourthBubble">
<path id="path32" d="M201.341 272.129C201.341 277.737 196.795 282.283 191.187 282.283C185.581 282.283 181.035 277.737 181.035 272.129C181.035 266.521 185.581 261.976 191.187 261.976C196.795 261.976 201.341 266.521 201.341 272.129Z" fill="#E9FBFF"/>
</g>
<g id="g34">
<path id="path36" d="M213.525 161.797C213.525 165.161 210.797 167.889 207.433 167.889C204.069 167.889 201.341 165.161 201.341 161.797C201.341 158.433 204.069 155.705 207.433 155.705C210.797 155.705 213.525 158.433 213.525 161.797Z" fill="#E9FBFF"/>
</g>
<g id="g38">
<path id="path40" d="M181.035 365.539C181.035 368.903 178.307 371.63 174.943 371.63C171.579 371.63 168.851 368.903 168.851 365.539C168.851 362.175 171.579 359.447 174.943 359.447C178.307 359.447 181.035 362.175 181.035 365.539Z" fill="#E9FBFF"/>
</g>
<g id="g42">
<path id="path44" d="M437.574 267.053C437.574 269.857 435.3 272.13 432.496 272.13C429.694 272.13 427.42 269.857 427.42 267.053C427.42 264.249 429.694 261.975 432.496 261.975C435.3 261.975 437.574 264.249 437.574 267.053Z" fill="#E9FBFF"/>
</g>
<g id="g46">
<path id="path48" d="M262.261 264.345C262.261 265.653 261.201 266.714 259.891 266.714C258.583 266.714 257.522 265.653 257.522 264.345C257.522 263.037 258.583 261.976 259.891 261.976C261.201 261.976 262.261 263.037 262.261 264.345Z" fill="#E9FBFF"/>
</g>
<g id="g50">
<path id="path52" d="M415.914 130.999C415.914 133.055 414.247 134.722 412.19 134.722C410.134 134.722 408.467 133.055 408.467 130.999C408.467 128.943 410.134 127.276 412.19 127.276C414.247 127.276 415.914 128.943 415.914 130.999Z" fill="#E9FBFF"/>
</g>
<g id="g54">
<path id="path56" d="M415.914 432.888C415.914 434.946 414.247 436.612 412.19 436.612C410.134 436.612 408.467 434.946 408.467 432.888C408.467 430.832 410.134 429.166 412.19 429.166C414.247 429.166 415.914 430.832 415.914 432.888Z" fill="#E9FBFF"/>
</g>
<g id="thirdBubble">
<path id="path60" d="M560.089 350.648C560.089 355.508 556.149 359.448 551.289 359.448C546.431 359.448 542.491 355.508 542.491 350.648C542.491 345.788 546.431 341.848 551.289 341.848C556.149 341.848 560.089 345.788 560.089 350.648Z" fill="#E9FBFF"/>
</g>
<g id="secondBubble">
<path id="path64" d="M132.299 421.043C132.299 426.278 128.056 430.519 122.823 430.519C117.588 430.519 113.346 426.278 113.346 421.043C113.346 415.81 117.588 411.567 122.823 411.567C128.056 411.567 132.299 415.81 132.299 421.043Z" fill="#E9FBFF"/>
</g>
<g id="g66">
<path id="path68" d="M114.023 211.548C114.023 213.604 112.356 215.271 110.3 215.271C108.244 215.271 106.578 213.604 106.578 211.548C106.578 209.492 108.244 207.825 110.3 207.825C112.356 207.825 114.023 209.492 114.023 211.548Z" fill="#E9FBFF"/>
</g>
<g id="firstBubble">
<path id="path72" d="M351.609 89.3701C351.609 95.3515 346.76 100.201 340.78 100.201C334.798 100.201 329.949 95.3515 329.949 89.3701C329.949 83.3888 334.798 78.5395 340.78 78.5395C346.76 78.5395 351.609 83.3888 351.609 89.3701Z" fill="#E9FBFF"/>
</g>
<g id="g74">
<path id="path76" d="M405.083 546.267C405.083 550.379 401.749 553.713 397.637 553.713C393.525 553.713 390.191 550.379 390.191 546.267C390.191 542.155 393.525 538.822 397.637 538.822C401.749 538.822 405.083 542.155 405.083 546.267Z" fill="#E9FBFF"/>
</g>
<g id="fifthBubble">
<path id="path80" d="M508.647 233.547C508.647 238.407 504.707 242.347 499.847 242.347C494.987 242.347 491.048 238.407 491.048 233.547C491.048 228.687 494.987 224.747 499.847 224.747C504.707 224.747 508.647 228.687 508.647 233.547Z" fill="#E9FBFF"/>
</g>
<g id="g82">
<path id="path84" d="M250.643 395.444L257.596 389.755C254.497 382.67 247.059 381.48 242.879 381.403L235.757 385.106C237.816 395.435 250.643 395.444 250.643 395.444Z" fill="#1D3542"/>
</g>
<g id="g86">
<path id="path88" d="M308.485 388.175C308.485 388.175 297.106 381.222 289.52 390.071C289.52 390.071 282.566 384.382 270.556 393.232L266.13 395.128C266.13 395.128 278.141 404.611 291.417 397.656C291.417 397.656 312.278 400.818 312.909 395.128C313.541 389.439 308.485 388.175 308.485 388.175Z" fill="#1D3542"/>
</g>
<g id="g90">
<path id="path92" d="M344.834 259.532C344.834 259.532 381.498 243.728 388.453 212.752C395.406 181.777 368.855 147.641 368.855 147.641C368.855 147.641 258.861 241.832 282.882 261.428C295.275 271.537 344.834 267.117 344.834 267.117" fill="#1D3542"/>
</g>
</g>
</g>
<g id="g94">
<g id="g96">
<g id="g102">
<g id="g116">
<g id="g114" opacity="0.220001">
<g id="g112">
<path id="path110" d="M301.215 224.763C301.215 224.763 313.226 255.107 335.351 253.843C357.478 252.577 373.047 224.347 374.428 210.015C375.81 195.684 298.687 208.959 301.215 224.763Z" fill="#1D3542"/>
</g>
</g>
</g>
</g>
</g>
</g>
<g id="g118">
<g id="g120">
<g id="g126">
<path id="path128" d="M302.479 411.881C302.479 411.881 278.458 448.546 277.194 454.235C277.194 454.235 195.646 458.661 176.681 466.878C157.717 475.097 150.762 499.75 167.198 512.394C183.634 525.037 292.997 529.462 323.341 518.715C323.341 518.715 480.115 539.575 506.665 509.233C533.215 478.889 458.622 449.178 395.406 452.339C395.406 452.339 373.281 408.721 361.27 403.03C349.258 397.342 302.479 411.881 302.479 411.881Z" fill="#D25A5C"/>
</g>
</g>
</g>
<g id="g130">
<g id="g132">
<g id="g138">
<g id="g152">
<g id="g150" opacity="0.229996">
<g id="g148">
<path id="path146" d="M333.828 519.98C333.828 519.98 302.479 517.452 274.032 497.222C274.032 497.222 291.732 521.876 311.962 525.669C332.191 529.461 333.828 519.98 333.828 519.98Z" fill="#D25A5C"/>
</g>
</g>
</g>
</g>
<g id="g154">
<g id="g168">
<g id="g166" opacity="0.229996">
<g id="g164">
<path id="path162" d="M214.61 468.775C213.408 470.098 207.025 473.199 213.346 475.729C219.668 478.257 254.436 497.222 263.286 494.693C272.137 492.165 220.932 461.821 214.61 468.775Z" fill="#D25A5C"/>
</g>
</g>
</g>
</g>
<g id="g170">
<g id="g184">
<g id="g182" opacity="0.229996">
<g id="g180">
<path id="path178" d="M401.634 491.441C402.992 491.531 430.175 484.579 442.186 479.522C454.196 474.465 456.724 470.671 459.886 470.671C463.047 470.671 462.415 464.35 453.564 464.982C444.715 465.614 408.05 481.417 408.05 481.417L401.634 492.358" fill="#D25A5C"/>
</g>
</g>
</g>
</g>
<g id="g186">
<g id="g200">
<g id="g198" opacity="0.229996">
<g id="g196">
<path id="path194" d="M392.877 475.728C392.877 475.728 363.798 482.05 359.373 481.418C354.949 480.786 368.224 453.603 399.198 451.075C399.198 451.075 368.854 450.442 348.626 473.2C328.398 495.958 311.329 467.511 298.686 461.19C298.686 461.19 319.002 486.811 319.908 490.119C319.908 490.119 351.366 486.075 360.426 487.538C360.426 487.538 383.396 487.739 394.458 475.412L392.877 475.728Z" fill="#D25A5C"/>
</g>
</g>
</g>
</g>
<g id="g202">
<path id="path204" d="M284.668 488C296.307 492.89 308.6 491.8 320.861 490.49C335.556 488.919 350.287 487.822 365.075 488.039C376.017 488.2 386.917 488.714 397.488 491.662C404.911 493.732 412.405 495.896 419.617 498.627C420.189 498.843 420.436 497.927 419.871 497.712C403.637 491.567 387.675 487.83 370.32 487.22C355.884 486.714 341.428 487.462 327.063 488.888C312.933 490.292 298.463 492.775 284.92 487.086C284.359 486.851 284.112 487.767 284.668 488Z" fill="#AA353B"/>
</g>
<g id="g206">
<path id="path208" d="M275.789 499.991C292.449 509.613 310.339 516.414 329.187 520.283C329.783 520.406 330.038 519.491 329.439 519.369C310.675 515.518 292.858 508.754 276.267 499.173C275.738 498.866 275.261 499.686 275.789 499.991Z" fill="#AA353B"/>
</g>
<g id="g210">
<path id="path212" d="M243.242 480.206C233.338 477.762 223.474 475.771 213.524 479.058C212.946 479.249 213.194 480.165 213.776 479.973C223.57 476.737 233.26 478.719 242.99 481.121C243.582 481.266 243.836 480.351 243.242 480.206Z" fill="#AA353B"/>
</g>
<g id="g214">
<g id="g228">
<g id="g226" opacity="0.490005">
<g id="g224">
<path id="path222" d="M318.796 489.401C315.272 484.304 311.748 479.207 308.226 474.108Z" fill="#D25A5C"/>
</g>
</g>
</g>
</g>
<g id="g230">
<path id="path232" d="M400.779 450.284C392.183 450.819 383.502 453.648 375.906 457.655C375.366 457.94 375.845 458.758 376.385 458.475C383.801 454.563 392.377 451.756 400.779 451.232C401.386 451.195 401.39 450.247 400.779 450.284Z" fill="#AA353B"/>
</g>
<g id="g234">
<path id="path236" d="M274.031 454.112C280.865 454.483 286.971 457.232 291.793 462.082C292.223 462.515 292.894 461.844 292.463 461.411C287.475 456.395 281.091 453.547 274.031 453.163C273.421 453.131 273.423 454.079 274.031 454.112Z" fill="#AA353B"/>
</g>
<g id="g238">
<path id="path240" d="M389.535 479.538C381.392 483.67 373.34 486.699 364.115 486.949C363.507 486.965 363.504 487.913 364.115 487.898C373.459 487.645 381.76 484.543 390.012 480.357C390.557 480.081 390.077 479.262 389.535 479.538Z" fill="#AA353B"/>
</g>
</g>
</g>
<g id="g242">
<g id="g244">
<g id="g250">
<path id="leftHand" d="M275.092 288.118C275.151 289.381 272.407 298.369 269.711 321.912C267.015 345.452 253.337 377.734 253.513 381.522C253.691 385.312 244.999 388.882 238.159 405.024C231.319 421.165 216.667 432.609 213.025 435.944C213.025 435.944 205.329 433.772 197.149 434.786C188.971 435.802 181.275 433.63 179.895 431.164C179.895 431.164 176.253 434.498 179.557 437.508C182.863 440.517 190.323 437.637 192.393 441.338C194.465 445.038 189.679 450.957 185.171 449.27C180.661 447.581 179.251 444.484 178.531 442.618C177.811 440.754 180.615 433.029 174.841 431.4C174.841 431.4 173.12 441.922 173.869 444.418C173.869 444.418 165.877 435.933 161.635 439.928C161.635 439.928 169.537 446.52 170.257 448.385C170.257 448.385 163.795 445.522 162.077 449.4C162.077 449.4 167.939 452.924 170.493 453.437C173.049 453.95 174.973 454.493 176.324 456.329C176.324 456.329 169.319 455.39 168.865 459.209C168.865 459.209 175.811 458.884 179.028 460C182.244 461.114 194.301 461.816 198.603 459.084C202.905 456.35 262.137 423.837 275.273 393.478C275.273 393.478 291.105 339.58 291.147 326.921" fill="#F4A082"/>
</g>
</g>
</g>
<g id="g254">
<g id="g256">
<g id="g262">
<g id="g276">
<g id="g274" opacity="0.210007">
<g id="g272">
<path id="path270" d="M263.286 351.194C263.286 351.194 276.562 378.377 293.629 389.122C310.698 399.87 285.411 331.597 263.286 351.194Z" fill="#D18161"/>
</g>
</g>
</g>
</g>
</g>
</g>
<g id="g278">
<g id="g280">
<g id="g286">
<path id="rightHand" d="M401.096 290.507C401.027 291.77 402.649 295.504 405.173 319.064C407.696 342.624 421.139 375.006 420.935 378.794C420.729 382.58 429.396 386.215 436.117 402.406C442.839 418.595 457.407 430.146 461.024 433.507C461.024 433.507 468.735 431.392 476.907 432.467C485.079 433.542 492.791 431.427 494.189 428.971C494.189 428.971 497.805 432.331 494.479 435.316C491.152 438.303 483.715 435.368 481.616 439.052C479.516 442.738 484.26 448.692 488.781 447.036C493.301 445.382 494.735 442.295 495.468 440.435C496.201 438.576 493.456 430.83 499.239 429.244C499.239 429.244 500.885 439.778 500.117 442.268C500.117 442.268 508.171 433.842 512.384 437.868C512.384 437.868 504.433 444.402 503.7 446.26C503.7 446.26 510.183 443.447 511.872 447.336C511.872 447.336 505.985 450.816 503.427 451.312C500.868 451.807 498.94 452.335 497.575 454.16C497.575 454.16 504.587 453.274 505.013 457.094C505.013 457.094 498.069 456.719 494.845 457.811C491.621 458.903 479.56 459.516 475.277 456.754C470.995 453.988 412.001 421.042 399.088 390.59C399.088 390.59 383.651 336.576 383.701 323.918" fill="#F4A082"/>
</g>
</g>
</g>
<g id="g290">
<g id="g292">
<g id="g298">
<g id="g312">
<g id="g310" opacity="0.210007">
<g id="g308">
<path id="path306" d="M399.199 401.766C399.199 401.766 411.211 381.537 421.956 379.009C432.703 376.479 393.509 353.722 399.199 401.766Z" fill="#D18161"/>
</g>
</g>
</g>
</g>
</g>
</g>
<g id="g314">
<g id="g316">
<g id="g322">
<path id="path324" d="M301.215 414.409L289.204 328.436L274.166 292.969C274.203 292.948 271.23 283.985 305.008 267.749C339.156 251.336 399.199 270.911 401.4 292.529C403.826 316.353 386.555 324.012 386.555 324.012L373.28 414.409C373.28 414.409 342.306 430.213 301.215 414.409Z" fill="#F4A082"/>
</g>
</g>
</g>
<g id="g326">
<g id="g328">
<g id="g334">
<g id="g348">
<g id="g346" opacity="0.210007">
<g id="g344">
<path id="path342" d="M293.629 389.123C293.454 390.525 351.912 429.54 379.981 408.068C408.049 386.595 299.318 343.608 293.629 389.123Z" fill="#D18161"/>
</g>
</g>
</g>
</g>
</g>
</g>
<g id="g350">
<g id="g352">
<g id="g358">
<path id="path360" d="M308.604 267.659C307.554 270.814 326.415 248.113 324.634 215.281H345.97C345.97 215.281 345.995 256.147 367.591 268.902C367.591 268.902 333.604 300.441 308.604 267.659" fill="#F4A082"/>
</g>
</g>
</g>
<g id="g362">
<g id="g364">
<g id="g370">
<g id="g384">
<g id="g382" opacity="0.339996">
<g id="g380">
<path id="path378" d="M354.316 238.355C354.316 246.908 345.684 253.843 335.036 253.843C324.387 253.843 315.755 246.908 315.755 238.355C315.755 229.8 324.387 222.867 335.036 222.867C345.684 222.867 354.316 229.8 354.316 238.355Z" fill="#D18161"/>
</g>
</g>
</g>
</g>
</g>
</g>
<g id="g386">
<g id="g388">
<g id="g394">
<path id="path396" d="M283.514 487.739C283.514 487.739 280.986 480.785 278.458 473.2C275.929 465.613 265.182 464.983 256.964 469.407C248.746 473.831 231.678 463.717 225.357 463.085C219.036 462.453 210.185 463.085 212.081 468.143C214.301 474.061 222.196 468.775 225.357 472.567C228.517 476.36 265.182 500.381 275.929 500.381C275.929 500.381 283.514 498.487 283.514 487.739" fill="#F4A082"/>
</g>
<g id="g398">
<path id="path400" d="M390.559 478.569C390.559 478.569 393.746 471.891 396.993 464.584C400.241 457.276 410.998 457.683 418.753 462.879C426.506 468.075 444.469 459.652 450.822 459.631C457.175 459.609 465.922 461.092 463.547 465.943C460.769 471.62 453.421 465.597 449.909 469.069C446.397 472.54 407.589 492.919 396.893 491.883C396.893 491.883 389.525 489.265 390.559 478.569Z" fill="#F4A082"/>
</g>
<g id="g402">
<path id="path404" d="M277.719 285.526C278.483 285.567 383.527 324.232 403.374 304.21C403.374 304.21 407.347 336.303 411.842 348.666C416.899 362.572 421.956 378.376 421.956 379.008C421.956 379.008 415.003 377.744 393.51 399.238C364.455 428.292 301.48 401.915 263.103 350.952C263.103 350.952 267.498 284.97 277.719 285.526" fill="#FFD2B9"/>
</g>
</g>
</g>
<g id="g406">
<g id="g408">
<g id="g414">
<path id="path416" d="M257.686 316.179C269.823 310.267 285.852 319.53 298.095 313.806C299.459 313.169 300.756 312.347 302.254 312.061C303.6 311.802 304.994 311.997 306.352 312.193C319.523 314.091 332.694 315.99 345.864 317.89C349.395 318.399 352.942 318.909 356.516 318.922C361.206 318.941 366.03 318.118 370.5 319.417C372.623 320.034 374.558 321.105 376.644 321.818C382.112 323.687 388.171 322.985 393.951 322.257C401.82 321.265 409.69 320.274 417.558 319.283C419.802 319.001 422.946 319.337 423.118 321.414C423.303 323.647 419.888 324.249 417.455 324.243C410.19 324.225 403.114 326.262 395.892 326.985C390.695 327.506 385.448 327.342 380.224 327.163C355.115 326.305 330.019 325.131 304.946 323.641C300.107 323.354 295.258 323.053 290.482 322.283C288.787 322.009 287.035 321.678 285.364 322.058C283.972 322.375 282.759 323.163 281.394 323.566C276.112 325.126 270.784 320.651 265.25 320.983C262.81 321.129 260.464 322.214 258.028 322.015C255.594 321.817 253.187 319.209 254.688 317.433" fill="#FCEBE6"/>
</g>
<g id="g418">
<path id="path420" d="M253.085 336.125C253.633 333.419 257.539 332.465 260.39 333.296C263.242 334.127 265.563 336.068 268.341 337.091C276.875 340.232 286.169 333.984 295.351 334.393C301.562 334.669 307.458 338.009 313.63 337.309C315.45 337.101 317.207 336.545 319.027 336.327C322.87 335.868 326.706 336.931 330.477 337.756C342.913 340.481 355.81 340.699 368.591 340.901C376.41 341.027 384.229 341.152 392.047 341.275C399.101 341.388 406.271 341.487 413.07 339.753C415.695 339.083 418.295 338.135 421.021 338.103C423.746 338.072 426.73 339.237 427.701 341.583C419.843 342.613 411.983 343.647 404.126 344.679C400.302 345.181 396.47 345.684 392.609 345.805C386.725 345.988 380.855 345.284 374.973 345.037C356.725 344.265 338.303 347.891 320.259 345.264C315.514 344.572 310.773 343.448 305.979 343.751C301.851 344.011 297.823 345.327 293.687 345.201C290.602 345.107 287.623 344.215 284.643 343.476C274.21 340.884 263.25 340.097 252.506 341.169C251.199 339.26 249.894 337.351 248.587 335.441L253.343 335.243" fill="#FCEBE6"/>
</g>
<g id="g422">
<path id="path424" d="M253.149 356.618C258.703 353.26 266.063 354.078 272.413 355.883C278.761 357.691 284.99 360.383 291.635 360.423C297.862 360.46 303.851 358.147 310.07 357.854C319.954 357.387 329.669 362.038 339.462 360.727C343.595 360.172 347.529 358.568 351.695 358.278C354.779 358.063 357.863 358.578 360.906 359.09C367.01 360.118 373.113 361.146 379.217 362.175C381.097 362.491 383.001 362.81 384.909 362.694C387.385 362.542 389.731 361.671 392.058 360.874C397.91 358.868 403.926 357.271 410.037 356.099C413.337 355.467 416.942 354.994 419.933 356.422C421.085 356.97 422.098 357.784 423.341 358.124C425.766 358.79 428.25 357.5 430.714 356.971C433.181 356.44 436.619 357.451 436.493 359.778C429.525 362.07 421.857 360.914 414.466 361.239C406.618 361.586 398.989 363.624 391.245 364.843C379.15 366.746 366.686 366.634 354.634 364.514C350.505 363.787 346.397 362.824 342.195 362.67C337.214 362.487 332.279 363.447 327.335 364.034C314.998 365.502 302.49 364.66 290.083 363.818C283.281 363.356 276.479 362.894 269.677 362.431C264.41 362.074 259.115 361.711 253.991 360.538C252.897 360.287 251.713 359.936 251.109 359.059C250.505 358.182 251.011 356.684 252.141 356.691" fill="#FCEBE6"/>
</g>
<g id="g426">
<path id="path428" d="M276.078 379.138C280.824 377.137 286.393 377.862 291.384 379.268C296.374 380.672 301.201 382.722 306.38 383.32C321.101 385.012 336.409 374.802 350.098 380.065C352.494 380.986 354.832 382.384 357.425 382.28C359.378 382.204 361.156 381.277 363.029 380.765C368.38 379.302 374.052 381.276 379.218 383.22C381.133 383.94 383.244 384.67 385.218 384.106C386.688 383.685 387.824 382.609 389.221 382.014C392.366 380.678 395.994 382.004 399.421 382.476C404.502 383.172 409.621 381.916 414.701 381.22C419.782 380.524 425.386 380.5 429.553 383.264C426.465 385.444 422.401 386.016 418.517 386.261C405.592 387.077 392.337 385.109 379.814 388.164C377.82 388.65 375.817 389.268 373.754 389.205C371.497 389.136 369.377 388.261 367.246 387.569C359.174 384.948 350.425 384.882 341.864 384.842C338.333 384.828 334.793 384.812 331.281 385.16C323.138 385.968 315.206 388.725 307.022 388.437C297.14 388.088 287.874 383.32 277.985 383.222C276.552 383.208 275.064 383.282 273.749 382.76C272.436 382.234 271.378 380.865 271.849 379.62C272.318 378.376 274.73 378.205 275.033 379.493" fill="#FCEBE6"/>
</g>
<g id="g430">
<path id="path432" d="M257.047 301.336C259.611 296.965 265.708 295.34 271.083 295.78C276.458 296.22 281.511 298.25 286.767 299.378C292.204 300.545 297.887 300.738 303.406 299.944C306.348 299.52 309.322 298.816 312.268 299.221C315.094 299.61 317.638 300.988 320.38 301.725C330.108 304.34 339.992 298.673 350.034 297.401C356.759 296.549 363.574 297.698 370.24 298.885C386.539 301.785 403.187 304.937 419.611 302.726C419.518 306.421 414.271 307.692 410.26 307.817C394.4 308.309 378.506 307.794 362.724 306.274C354.81 305.512 346.87 304.496 338.926 304.928C333.355 305.23 327.819 306.245 322.244 306.042C312.858 305.702 303.891 301.937 294.498 301.794C289.666 301.721 284.886 302.612 280.08 303.088C273.535 303.737 266.9 303.617 260.387 302.733C259.04 302.55 257.576 302.273 256.714 301.302C255.852 300.332 256.186 298.48 257.534 298.298" fill="#FCEBE6"/>
</g>
<g id="g434">
<path id="path436" d="M310.13 398.732C324.976 399.089 339.899 399.443 354.614 397.593C357.895 397.183 361.182 396.66 364.491 396.725C367.412 396.783 370.296 397.297 373.171 397.779C383.802 399.56 394.518 400.915 405.276 401.835C395.995 405.955 385.136 405.5 374.931 404.185C364.726 402.871 354.446 400.781 344.218 401.935C338.318 402.601 332.519 404.344 326.578 404.144C322.03 403.989 317.535 402.665 313.734 400.363" fill="#FCEBE6"/>
</g>
</g>
</g>
<g id="g438">
<g id="g440">
<g id="g446">
<path id="path448" d="M376.908 201.456C376.908 227.594 347.664 248.785 335.351 248.785C323.038 248.785 293.795 227.594 293.795 201.456C293.795 175.317 311.631 142.584 334.582 142.584C357.534 142.584 376.908 175.317 376.908 201.456Z" fill="#F4A082"/>
</g>
</g>
</g>
<g id="g450">
<g id="g452">
<g id="g458">
<g id="g472">
<g id="g470" opacity="0.179993">
<g id="g468">
<path id="path466" d="M334.295 156.553C334.295 156.553 349.228 188.065 373.187 199.514C397.147 210.962 373.187 199.514 373.187 199.514L343.444 155.705L325.659 151.895C325.659 151.895 299.299 191.355 303.111 203.27C306.924 215.185 303.111 203.27 303.111 203.27C303.111 203.27 324.955 160.962 338.939 156.741C352.924 152.518 331.368 150.518 331.368 150.518" fill="#A05940"/>
</g>
</g>
</g>
</g>
</g>
</g>
<g id="g474">
<g id="g476">
<g id="g482">
<path id="path484" d="M334.72 157.755C334.72 157.755 313.226 171.662 303.112 203.27C303.112 203.27 297.422 217.176 301.216 224.763C305.008 232.348 319.548 242.463 316.386 251.946C316.386 251.946 317.02 268.382 302.48 279.76C302.48 279.76 316.386 274.071 328.398 296.196C328.398 296.196 353.685 282.922 372.017 306.311C372.017 306.311 385.292 291.139 398.568 310.736C398.568 310.736 410.578 302.518 416.9 318.322C416.9 318.322 426.382 310.736 423.221 331.596C423.221 331.596 433.968 340.447 420.692 348.666C420.692 348.666 422.589 353.09 415.004 357.515L411.21 346.768C411.21 346.768 413.106 344.872 417.532 344.872C417.532 344.872 413.74 336.023 420.061 331.596C420.061 331.596 409.946 329.068 409.946 318.322C409.946 318.322 398.568 325.907 390.981 312.632C390.981 312.632 372.648 327.804 358.109 307.575C358.109 307.575 329.03 327.172 315.754 301.254C315.754 301.254 279.721 317.69 277.826 285.45C277.826 285.45 258.861 259.532 282.882 244.36C282.882 244.36 260.822 215.183 274.033 189.363C287.94 162.179 301.216 121.722 331.558 138.79C331.558 138.79 384.66 115.4 377.074 202.638C377.074 202.638 350.524 182.408 334.72 157.755" fill="#1D3542"/>
</g>
</g>
</g>
<g id="g510">
<g id="g512">
<g id="leftEar">
<path id="path520" d="M303.621 205.299C304.827 210.213 303.16 214.843 299.899 215.642C296.637 216.442 293.017 213.109 291.812 208.197C290.607 203.283 292.273 198.653 295.535 197.853C298.796 197.053 302.416 200.386 303.621 205.299Z" fill="#F4A082"/>
</g>
<g id="rightEar">
<path id="path524" d="M372.772 200.874C371.566 205.788 373.233 210.418 376.494 211.218C379.754 212.017 383.376 208.684 384.58 203.772C385.786 198.858 384.12 194.228 380.857 193.428C377.597 192.628 373.976 195.961 372.772 200.874Z" fill="#F4A082"/>
</g>
<g id="g526">
<path id="path528" d="M266.447 346.137C253.171 341.712 247.481 357.514 247.481 357.514C238 353.721 235.471 365.733 235.471 365.733C227.252 372.686 235.471 382.169 235.471 382.169C235.471 383.233 235.577 384.205 235.757 385.106L242.879 381.402C241.092 381.369 239.896 381.537 239.896 381.537C243.057 375.216 238 368.262 238 368.262C247.481 368.893 250.643 360.676 250.643 360.676C284.78 373.32 293.629 334.125 293.629 334.125C293.629 334.125 279.721 350.561 266.447 346.137Z" fill="#1D3542"/>
</g>
<g id="leftEye">
<path id="path532" d="M310.878 204.2C313.65 204.868 316.362 205.172 319.084 204.969C321.805 204.792 324.45 204.12 327.104 203.08C324.961 204.996 322.064 206.02 319.17 206.23C316.276 206.417 313.268 205.801 310.878 204.2Z" fill="#2E2430"/>
</g>
<g id="mouth">
<path id="path536" d="M329.669 233.224C333.531 234.786 337.711 234.467 341.317 232.394C341.927 232.043 341.377 231.096 340.765 231.448C337.383 233.392 333.569 233.627 329.959 232.168C329.307 231.904 329.023 232.963 329.669 233.224Z" fill="#A34F31"/>
</g>
<g id="nose">
<path id="path540" d="M329.814 222.582C330.862 222.613 331.803 222.67 332.731 222.678C333.657 222.692 334.558 222.668 335.455 222.605C336.355 222.541 337.25 222.441 338.163 222.301C339.083 222.165 340.006 221.98 341.041 221.806C340.417 222.656 339.55 223.277 338.61 223.724C337.665 224.165 336.631 224.426 335.587 224.497C334.542 224.568 333.482 224.452 332.486 224.144C331.494 223.83 330.55 223.334 329.814 222.582Z" fill="#A34F31"/>
</g>
<g id="rightEye">
<path id="path544" d="M345.044 204.304C347.816 204.972 350.528 205.276 353.248 205.075C355.97 204.898 358.616 204.224 361.27 203.184C359.126 205.1 356.229 206.126 353.336 206.335C350.441 206.522 347.432 205.906 345.044 204.304Z" fill="#2E2430"/>
</g>
<g id="leftEyeBro">
<path id="path548" d="M310.679 198C314.404 193.715 319.868 191.77 325.456 192.86C326.414 193.047 326.823 191.579 325.862 191.391C319.764 190.202 313.687 192.224 309.602 196.923C308.962 197.66 310.035 198.742 310.679 198Z" fill="#1D3542"/>
</g>
<g id="rightEyeBro">
<path id="path552" d="M361.733 196.28C357.647 191.58 351.57 189.558 345.474 190.748C344.513 190.935 344.919 192.404 345.878 192.216C351.466 191.126 356.93 193.072 360.655 197.358C361.301 198.098 362.373 197.018 361.733 196.28Z" fill="#1D3542"/>
</g>
<g id="g554">
<path id="path556" d="M335.959 155.61C336.804 159.566 338.372 163.6 340.294 167.322C342.231 171.065 344.555 174.638 347.328 177.85C350.094 181.054 353.138 184.076 356.6 186.57C358.258 187.925 360.115 188.986 361.918 190.142C363.739 191.262 365.7 192.14 367.591 193.156C365.656 192.237 363.647 191.452 361.763 190.418C359.899 189.348 357.971 188.368 356.235 187.085C352.611 184.736 349.37 181.826 346.383 178.689C343.388 175.546 340.82 171.998 338.63 168.23C336.443 164.434 334.644 160.493 333.479 156.106L335.959 155.61Z" fill="#1D3542"/>
</g>
<g id="g558">
<path id="path560" d="M336.834 152.868C335.961 154.878 335.313 157.198 334.914 159.472C334.518 161.766 334.389 164.113 334.549 166.45C334.679 168.792 335.193 171.113 336.023 173.325C336.781 175.582 338.083 177.601 339.461 179.564C337.923 177.737 336.418 175.806 335.441 173.572C334.39 171.385 333.645 169.022 333.293 166.594C332.91 164.172 332.829 161.692 333.033 159.232C333.257 156.756 333.677 154.368 334.501 151.896L336.834 152.868Z" fill="#1D3542"/>
</g>
<g id="g562">
<path id="path564" d="M338.94 155.301C337.848 156.006 336.704 156.923 335.668 157.861C334.617 158.807 333.624 159.829 332.702 160.918C331.773 162.002 330.91 163.151 330.144 164.369C329.349 165.573 328.701 166.866 328.081 168.186C328.502 166.797 328.964 165.399 329.588 164.069C330.184 162.723 330.89 161.423 331.682 160.171C332.468 158.913 333.341 157.703 334.296 156.553C335.261 155.391 336.242 154.317 337.453 153.255L338.94 155.301Z" fill="#1D3542"/>
</g>
<g id="g566">
<g id="g580">
<g id="g578" opacity="0.559998">
<g id="g576">
<path id="path574" d="M542.49 576.05C542.49 579.414 454.302 582.142 345.518 582.142C236.732 582.142 148.544 579.414 148.544 576.05C148.544 572.686 236.732 569.959 345.518 569.959C454.302 569.959 542.49 572.686 542.49 576.05Z" fill="#A7D3DF"/>
</g>
</g>
</g>
</g>
</g>
</g>
</g>
</svg>
