<svg width="502" height="512" viewBox="0 0 502 512" fill="none" xmlns="http://www.w3.org/2000/svg">
<g clip-path="url(#clip0_14_2)">
<path d="M279.75 471.21C294.09 469.31 305.42 483.33 300.56 496.96C298.02 503.87 292.12 508.72 284.8 509.69C267.954 511.857 250.936 512.373 233.99 511.23C171.47 507.02 115.22 479.93 73.55 438.26C28.11 392.82 0 330.04 0 260.71C0 191.37 28.11 128.6 73.55 83.1601C118.99 37.7201 181.76 9.61012 251.1 9.61012C275.14 9.61012 298.57 13.0701 320.9 19.5201C339.22 24.806 356.872 32.1776 373.51 41.4901L368.56 28.5301C364.43 17.6701 369.88 5.52012 380.73 1.38012C391.59 -2.74988 403.74 2.70012 407.88 13.5601L428.8 68.3001C429.589 70.3828 430.048 72.5759 430.16 74.8001C431.8 85.0001 425.69 95.1101 415.53 98.1901L359.5 115.33C348.41 118.69 336.7 112.43 333.34 101.35C329.98 90.2701 336.24 78.5501 347.32 75.1901L351.93 73.7801C338.65 66.5922 324.637 60.8525 310.13 56.6601C291.56 51.3001 271.76 48.4201 251.1 48.4201C192.48 48.4201 139.4 72.1801 100.99 110.6C62.57 149.01 38.81 202.08 38.81 260.71C38.81 319.33 62.57 372.4 100.99 410.82C135.8 445.63 182.65 468.41 234.76 472.37C249.66 473.5 264.99 473.13 279.75 471.21V471.21ZM212.66 158.58C212.66 147.87 221.35 139.18 232.07 139.18C242.78 139.18 251.47 147.87 251.47 158.58V276.7L332.32 312.24C342.12 316.55 346.56 327.99 342.25 337.79C337.94 347.58 326.5 352.03 316.7 347.72L225.24 307.52C217.89 304.75 212.66 297.66 212.66 289.35V158.58V158.58ZM347.36 450.47C331.74 458.46 333.82 481.37 350.65 486.4C355.52 487.78 360.37 487.36 364.91 485.09C377.43 478.8 389.45 471.39 400.72 463.07C406.22 458.97 409.08 452.51 408.49 445.68C406.99 430.59 389.81 422.94 377.6 431.9C368.067 438.94 357.95 445.152 347.36 450.47V450.47ZM426.52 380.92C417.68 394.1 427.61 411.82 443.49 411.12C449.7 410.79 455.26 407.75 458.74 402.55C466.6 390.89 473.39 378.68 479.21 365.88C484.82 353.24 476.08 339.08 462.25 338.49C454.32 338.23 447.14 342.66 443.84 349.89C438.91 360.74 433.18 371.04 426.52 380.92V380.92ZM462.18 281.4C461.48 289.02 465.18 296.16 471.77 300.03C484.13 307.05 499.37 299.19 500.82 285.06C502.15 271.04 502.36 257.16 501.4 243.11C500.92 236.36 497.02 230.41 491.02 227.26C477.56 220.28 461.61 230.72 462.68 245.83C463.5 257.75 463.31 269.5 462.18 281.4ZM446.1 177.02C450.45 187.05 462.12 191.56 472.05 186.98C481.62 182.58 485.91 171.37 481.76 161.69C476.26 148.8 469.64 136.41 462.07 124.61C452.56 109.99 430.18 114.25 426.72 131.36C425.77 136.39 426.67 141.3 429.44 145.63C435.86 155.65 441.44 166.07 446.1 177.02V177.02Z" fill="black"/>
</g>
<defs>
<clipPath id="clip0_14_2">
<rect width="502" height="511.82" fill="white"/>
</clipPath>
</defs>
</svg>
